<svg width="196" height="27" viewBox="0 0 196 27" fill="none" xmlns="http://www.w3.org/2000/svg">
<g clip-path="url(#clip0_197_1354)">
<path d="M133.887 5.71228H130.75V21.3074H133.887V5.71228Z" fill="#468459"/>
<path d="M118.179 5.71228L112.154 21.3025H115.447L119.884 9.4196L124.315 21.3025H127.608L121.584 5.71228H118.179Z" fill="#468459"/>
<path d="M46.1796 5.71228L40.1553 21.3025H43.4484L47.8848 9.4196L52.3164 21.3025H55.6095L49.59 5.71228H46.1796Z" fill="#468459"/>
<path d="M89.7819 15.3366C89.7665 16.1552 89.4296 16.9351 88.8438 17.5081C88.258 18.0811 87.4701 18.4014 86.65 18.4C85.8558 18.4357 85.0798 18.1553 84.4926 17.6202C83.9054 17.0851 83.5549 16.3392 83.5181 15.5463C83.5157 15.522 83.5157 15.4975 83.5181 15.4731V5.71704H80.3813V15.4731C80.4269 17.1034 81.1076 18.6516 82.2787 19.7886C83.4498 20.9256 85.0189 21.5618 86.6524 21.5618C88.286 21.5618 89.8551 20.9256 91.0262 19.7886C92.1973 18.6516 92.878 17.1034 92.9235 15.4731V5.71704H89.7917L89.7819 15.3366Z" fill="#468459"/>
<path d="M109.662 10.5951C109.656 9.29743 109.134 8.05526 108.212 7.14086C107.29 6.22647 106.042 5.71445 104.742 5.71705H97.5942V21.3268H100.682V8.439H104.356C104.912 8.46538 105.436 8.70431 105.82 9.10623C106.204 9.50814 106.418 10.0422 106.418 10.5975C106.418 11.1529 106.204 11.6869 105.82 12.0888C105.436 12.4908 104.912 12.7297 104.356 12.7561H101.845L106.404 21.3219H109.765L106.428 15.1951C107.376 14.855 108.196 14.2304 108.775 13.4069C109.355 12.5834 109.664 11.6013 109.662 10.5951Z" fill="#468459"/>
<path d="M71.8453 5.71228L67.2476 11.9757L62.645 5.71228H58.7803V21.3025H61.917V9.96594L67.2476 17.0489L72.5782 9.96594V21.3025H75.7149V5.71228H71.8453Z" fill="#468459"/>
<path d="M33.3151 12.0096H28.9178C28.5022 11.9994 28.107 11.8274 27.8167 11.5303C27.5264 11.2331 27.364 10.8345 27.3641 10.4194C27.364 10.0108 27.5238 9.61829 27.8095 9.32573C28.0953 9.03317 28.4842 8.86371 28.8934 8.85353H36.6767L38.3379 5.74133H28.908C27.6708 5.74388 26.4847 6.23438 25.608 7.106C24.7313 7.97762 24.235 9.15977 24.2273 10.395C24.2389 11.6224 24.7378 12.795 25.6144 13.6556C26.491 14.5161 27.6738 14.9943 28.9031 14.9852H33.3005C33.7229 14.9852 34.1281 15.1528 34.4268 15.451C34.7255 15.7492 34.8933 16.1537 34.8933 16.5755C34.8933 16.9972 34.7255 17.4017 34.4268 17.7C34.1281 17.9982 33.7229 18.1657 33.3005 18.1657H25.483L23.8218 21.2828H33.3005C34.5403 21.2919 35.7333 20.8106 36.6187 19.944C37.504 19.0775 38.0097 17.8962 38.0252 16.6584C38.0233 16.0505 37.9014 15.4489 37.6666 14.888C37.4318 14.3271 37.0887 13.8178 36.6568 13.3893C36.2248 12.9608 35.7126 12.6214 35.1493 12.3905C34.586 12.1597 33.9827 12.0418 33.3738 12.0438L33.3151 12.0096Z" fill="#468459"/>
<path d="M13.7615 15.1951L6.32021 22.6487C4.18715 21.8447 2.40286 20.3212 1.27626 18.3422C0.14966 16.3631 -0.24832 14.053 0.151224 11.8119C0.550768 9.57078 1.72268 7.53969 3.46406 6.07028C5.20545 4.60088 7.40667 3.78567 9.68661 3.76581C10.1559 3.76576 10.6246 3.8 11.0889 3.86825L4.35118 10.5951C4.04095 10.9051 3.79493 11.2731 3.62715 11.6781C3.45938 12.0831 3.37315 12.5171 3.37338 12.9553C3.37383 13.8404 3.72644 14.6891 4.35362 15.3146C4.9808 15.9401 5.83118 16.2913 6.71769 16.2908C7.60421 16.2904 8.45422 15.9383 9.08076 15.3122L11.5237 12.8731C11.8258 12.5738 12.2341 12.4057 12.6597 12.4057C13.0853 12.4057 13.4936 12.5738 13.7957 12.8731C13.9478 13.0249 14.0686 13.2051 14.1509 13.4035C14.2333 13.6019 14.2757 13.8145 14.2757 14.0292C14.2757 14.244 14.2333 14.4566 14.1509 14.655C14.0686 14.8533 13.9478 15.0336 13.7957 15.1853L13.7615 15.1951Z" fill="#468459"/>
<path d="M12.9897 4.35126L5.56794 11.8244C5.26772 12.1307 5.09961 12.5422 5.09961 12.9708C5.09961 13.3993 5.26772 13.8108 5.56794 14.1171C5.71406 14.2714 5.89017 14.3943 6.08549 14.4782C6.28082 14.5622 6.49125 14.6055 6.70392 14.6055C6.91658 14.6055 7.12701 14.5622 7.32234 14.4782C7.51766 14.3943 7.69377 14.2714 7.83989 14.1171L10.2829 11.6781C10.8992 11.0611 11.7346 10.712 12.6074 10.7065C13.4802 10.701 14.3199 11.0396 14.944 11.6488L14.9685 11.6781C15.5909 12.3048 15.9401 13.1516 15.9401 14.0342C15.9401 14.9167 15.5909 15.7636 14.9685 16.3903L8.26008 23.1317C8.72604 23.1998 9.19632 23.2341 9.66723 23.2342C11.9435 23.2044 14.138 22.3821 15.8717 20.9093C17.6055 19.4364 18.7699 17.4054 19.1637 15.1669C19.5576 12.9284 19.1563 10.6228 18.0291 8.64816C16.9019 6.67353 15.1195 5.15378 12.9897 4.35126Z" fill="#468459"/>
</g>
<path d="M145.15 10.406H145.888V9.59597H145.15V10.406ZM151.774 14.762L150.946 13.394L150.406 14.402C149.71 14.126 149.08 13.826 148.516 13.502V14.456H145.888V13.628C145.324 14 144.634 14.378 143.818 14.762H151.774ZM153.646 11.774C153.394 11.426 153.13 10.988 152.854 10.46C152.638 10.7 152.302 11.036 151.846 11.468L151.09 10.334V11.738H149.02C149.692 12.05 150.46 12.356 151.324 12.656C152.332 12.344 153.106 12.05 153.646 11.774ZM155.482 10.352C155.866 9.84797 156.154 9.18197 156.346 8.35397H154.564C154.816 9.18197 155.122 9.84797 155.482 10.352ZM155.428 13.466C154.612 13.946 153.532 14.378 152.188 14.762H158.29C157.066 14.366 156.112 13.934 155.428 13.466ZM149.254 10.406V9.59597H148.516V10.406H149.254ZM152.62 19.424H159.19V21.404H142.81V19.424H145.096V17.084H147.958V19.424H149.686V16.688H143.35V14.942L142.342 13.052C143.434 12.668 144.394 12.23 145.222 11.738H145.15H143.17V8.17397H145.888V7.77797H142.666V5.90597H145.888V5.11397H148.516V5.90597H151.738V7.77797H148.516V8.17397H151.09V8.69597C152.014 7.73597 152.782 6.49397 153.394 4.96997L155.878 5.20397C155.746 5.63597 155.62 5.99597 155.5 6.28397H159.424V8.35397H158.74C158.5 9.84197 158.032 11.018 157.336 11.882C157.9 12.17 158.674 12.476 159.658 12.8L158.65 14.888V16.688H152.62V17.156H157.75V18.902H152.62V19.424Z" fill="#96C519"/>
<path d="M174.562 16.832C173.818 15.548 173.152 14.156 172.564 12.656V16.832H174.562ZM169.774 12.656C169.198 14.12 168.52 15.512 167.74 16.832H169.774V12.656ZM168.424 10.37H165.13V8.42597C164.986 8.92997 164.824 9.41597 164.644 9.88397V16.634C166.276 14.582 167.536 12.494 168.424 10.37ZM177.442 8.02997V10.37H173.95C174.874 12.638 176.182 14.81 177.874 16.886L176.38 19.658C175.984 19.094 175.564 18.464 175.12 17.768V19.046H172.564V21.746H169.774V19.046H167.164V17.786C166.816 18.338 166.384 18.962 165.868 19.658L164.644 18.29V21.746H161.998V14.312C161.59 14.996 161.17 15.578 160.738 16.058L160.126 12.566C160.846 11.594 161.434 10.544 161.89 9.41597C162.358 8.27597 162.76 6.87797 163.096 5.22197L165.724 5.68997C165.604 6.50597 165.442 7.28597 165.238 8.02997H169.774V5.29397H172.564V8.02997H177.442Z" fill="#96C519"/>
<path d="M182.968 7.79597H181.546V11.342C182.122 10.202 182.596 9.01997 182.968 7.79597ZM187.216 9.91997H192.364V8.98397H187.216V9.91997ZM193.264 16.688L195.388 16.994C195.364 17.546 195.346 17.954 195.334 18.218C195.322 18.482 195.292 18.806 195.244 19.19C195.208 19.562 195.184 19.82 195.172 19.964C195.16 20.108 195.112 20.294 195.028 20.522C194.944 20.75 194.884 20.894 194.848 20.954C194.812 21.014 194.722 21.098 194.578 21.206C194.434 21.326 194.314 21.386 194.218 21.386C194.134 21.398 193.972 21.422 193.732 21.458C193.504 21.494 193.312 21.512 193.156 21.512C193 21.512 192.748 21.512 192.4 21.512C191.164 21.512 190.396 21.416 190.096 21.224C189.808 21.032 189.664 20.558 189.664 19.802V15.446H189.034C188.974 16.946 188.59 18.182 187.882 19.154C187.186 20.126 186.064 20.996 184.516 21.764L183.112 19.604C184.312 19.064 185.164 18.488 185.668 17.876C186.172 17.264 186.466 16.454 186.55 15.446H185.038C185.038 15.47 185.038 15.506 185.038 15.554C185.05 15.602 185.056 15.638 185.056 15.662C185.056 16.682 184.84 17.42 184.408 17.876C183.988 18.332 183.322 18.56 182.41 18.56H182.104L181.582 16.364H181.708C182.08 16.364 182.326 16.286 182.446 16.13C182.566 15.962 182.626 15.62 182.626 15.104C182.626 14.6 182.548 14.15 182.392 13.754C182.236 13.358 181.954 12.908 181.546 12.404V21.71H179.026V5.68997H185.434V6.71597H187.972V5.09597H190.924V6.71597H195.028V11.144H193.498V12.098H186.082V11.144H184.75V9.77597C184.378 10.712 184.054 11.438 183.778 11.954C184.054 12.338 184.294 12.74 184.498 13.16H195.082V15.446H192.202V18.866C192.202 19.058 192.22 19.172 192.256 19.208C192.304 19.232 192.442 19.244 192.67 19.244C192.934 19.244 193.09 19.136 193.138 18.92C193.186 18.704 193.228 17.96 193.264 16.688Z" fill="#96C519"/>
<defs>
<clipPath id="clip0_197_1354">
<rect width="134" height="19" fill="white" transform="translate(0 4)"/>
</clipPath>
</defs>
</svg>
